# xmcd
#
# Track frame offsets:
#	150
#	11461
#	26798
#	44714
#	59485
#	69423
#	85206
#	99071
#	112039
#	124864
#
# Disc length: 1871 seconds
# Revision: 0
# Processed by: cddbd v1.5.2PL0 Copyright (c) Steve Scherf et al.
# Submitted via: dBpowerAMP V12.0
#
DISCID=83074d0a
DTITLE=Roy Clark - Labor of Love [ABC] (L)
DYEAR=1978
DGENRE=Country
TTITLE0=Must You Throw Dirt In My Face
TTITLE1=Shoulder to Shoulder (Arm in Arm)
TTITLE2=The  Happy Days
TTITLE3=Southern Nights
TTITLE4=Love Is a Beautiful Song
TTITLE5=Where Have You Been All My Life
TTITLE6=Me and the Elephant
TTITLE7=One of These Days
TTITLE8=It Was Almost Like a Song
TTITLE9=Love For All Seasons
EXTD=
EXTT0=
EXTT1=
EXTT2=
EXTT3=
EXTT4=
EXTT5=
EXTT6=
EXTT7=
EXTT8=
EXTT9=
PLAYORDER=
